<svg width="40" height="40" viewBox="0 0 40 40" fill="none" xmlns="http://www.w3.org/2000/svg">
<g filter="url(#filter0_d)">
<circle cx="20" cy="16" r="16" fill="white"/>
</g>
<path d="M34 16C34 23.7321 27.7321 30 20 30C12.2679 30 6 23.7321 6 16C6 8.26791 12.2679 2 20 2C27.7321 2 34 8.26791 34 16Z" fill="url(#paint0_linear)"/>
<path d="M34 16C34 23.7321 27.7321 30 20 30C12.2679 30 6 23.7321 6 16C6 8.26791 12.2679 2 20 2C27.7321 2 34 8.26791 34 16Z" fill="url(#paint1_linear)"/>
<path d="M20 8.45312H14.2149C13.2419 8.45312 12.4531 9.24189 12.4531 10.2149V21.7851C12.4531 22.7581 13.2419 23.5469 14.2149 23.5469H25.7851C26.7581 23.5469 27.5469 22.7581 27.5469 21.7851V10.2149C27.5469 9.24189 26.7581 8.45312 25.7851 8.45312H20Z" fill="url(#paint2_linear)"/>
<path d="M19.9323 15.0154L20 14.4965L18.7339 14.8195L16.7572 14.4965L17.1281 15.2292L14.2219 15.9705V21.7781H19.5578L20 21.4833L20.0927 21.0874L20.4422 21.7781H25.7781V15.9705L19.9323 15.0154Z" fill="url(#paint3_linear)"/>
<path d="M20.4422 21.7781H19.5578V19.9151L20.3965 19.5376L17.4485 18.211L19.5578 17.2619V15.3809H20.4422V17.8335L19.6035 18.211L22.5515 19.5376L20.4422 20.4869V21.7781Z" fill="url(#paint4_linear)"/>
<path d="M16.8751 11.5485C16.8751 12.2813 16.2813 12.8751 15.5485 12.8751C14.8158 12.8751 14.2219 12.2813 14.2219 11.5485C14.2219 10.8158 14.8158 10.2219 15.5485 10.2219C16.2813 10.2219 16.8751 10.8158 16.8751 11.5485Z" fill="url(#paint5_linear)"/>
<path d="M25.778 11.5485C25.778 12.2813 25.1841 12.8751 24.4514 12.8751C23.7186 12.8751 23.1248 12.2813 23.1248 11.5485C23.1248 10.8158 23.7186 10.2219 24.4514 10.2219C25.1841 10.2219 25.778 10.8158 25.778 11.5485Z" fill="url(#paint6_linear)"/>
<path opacity="0.55" d="M20 10.2219H17.7595V12.8751H22.2405V10.2219H20Z" fill="url(#paint7_linear)"/>
<path d="M16.4329 13.7595H14.2219V15.9705H16.4329L17.0225 14.865L16.4329 13.7595Z" fill="url(#paint8_linear)"/>
<path d="M25.778 15.9705V13.7595H23.567L22.6826 14.865L23.567 15.9705H25.778Z" fill="url(#paint9_linear)"/>
<path d="M23.567 15.9705V13.7595H19.9999L19.1155 14.865L19.9999 15.9705H23.567Z" fill="url(#paint10_linear)"/>
<path d="M16.4329 13.7595H19.9999V15.9705H16.4329V13.7595Z" fill="url(#paint11_linear)"/>
<defs>
<filter id="filter0_d" x="0" y="0" width="40" height="40" filterUnits="userSpaceOnUse" color-interpolation-filters="sRGB">
<feFlood flood-opacity="0" result="BackgroundImageFix"/>
<feColorMatrix in="SourceAlpha" type="matrix" values="0 0 0 0 0 0 0 0 0 0 0 0 0 0 0 0 0 0 127 0"/>
<feOffset dy="4"/>
<feGaussianBlur stdDeviation="2"/>
<feColorMatrix type="matrix" values="0 0 0 0 0 0 0 0 0 0 0 0 0 0 0 0 0 0 0.09 0"/>
<feBlend mode="normal" in2="BackgroundImageFix" result="effect1_dropShadow"/>
<feBlend mode="normal" in="SourceGraphic" in2="effect1_dropShadow" result="shape"/>
</filter>
<linearGradient id="paint0_linear" x1="9.95652" y1="4.73913" x2="30.0435" y2="30" gradientUnits="userSpaceOnUse">
<stop stop-color="#EEFAFF"/>
<stop offset="1" stop-color="#9DE2FF"/>
</linearGradient>
<linearGradient id="paint1_linear" x1="10.1005" y1="6.10051" x2="29.8995" y2="25.8995" gradientUnits="userSpaceOnUse">
<stop stop-color="white"/>
<stop offset="1" stop-color="#F6D4B4"/>
</linearGradient>
<linearGradient id="paint2_linear" x1="12.4531" y1="8.45312" x2="27.5469" y2="23.5469" gradientUnits="userSpaceOnUse">
<stop stop-color="#1A51A3"/>
<stop offset="1" stop-color="#46000D"/>
</linearGradient>
<linearGradient id="paint3_linear" x1="15.6591" y1="14.5334" x2="24.3409" y2="23.2152" gradientUnits="userSpaceOnUse">
<stop stop-color="white"/>
<stop offset="1" stop-color="#97E4FD"/>
</linearGradient>
<linearGradient id="paint4_linear" x1="18.1796" y1="16.7591" x2="21.8204" y2="20.3999" gradientUnits="userSpaceOnUse">
<stop stop-color="#71D1FE"/>
<stop offset="1" stop-color="#2196DC"/>
</linearGradient>
<linearGradient id="paint5_linear" x1="14.6105" y1="10.6105" x2="16.4866" y2="12.4866" gradientUnits="userSpaceOnUse">
<stop stop-color="#64FF2E"/>
<stop offset="1" stop-color="#3692FF"/>
</linearGradient>
<linearGradient id="paint6_linear" x1="23.5133" y1="10.6105" x2="25.3894" y2="12.4866" gradientUnits="userSpaceOnUse">
<stop stop-color="#64FF2E"/>
<stop offset="1" stop-color="#3692FF"/>
</linearGradient>
<linearGradient id="paint7_linear" x1="18.4157" y1="10.6105" x2="20.0607" y2="13.3887" gradientUnits="userSpaceOnUse">
<stop stop-color="#64FF2E"/>
<stop offset="1" stop-color="#3692FF"/>
</linearGradient>
<linearGradient id="paint8_linear" x1="14.2219" y1="13.7595" x2="16.4329" y2="15.9705" gradientUnits="userSpaceOnUse">
<stop stop-color="#71D1FE"/>
<stop offset="1" stop-color="#2196DC"/>
</linearGradient>
<linearGradient id="paint9_linear" x1="23.567" y1="13.7595" x2="25.778" y2="15.9705" gradientUnits="userSpaceOnUse">
<stop stop-color="#71D1FE"/>
<stop offset="1" stop-color="#2196DC"/>
</linearGradient>
<linearGradient id="paint10_linear" x1="20.3389" y1="13.4205" x2="23.2279" y2="16.3095" gradientUnits="userSpaceOnUse">
<stop stop-color="#186C95"/>
<stop offset="1" stop-color="#093F61"/>
</linearGradient>
<linearGradient id="paint11_linear" x1="16.7719" y1="13.4205" x2="19.6609" y2="16.3095" gradientUnits="userSpaceOnUse">
<stop stop-color="#2196DC"/>
<stop offset="1" stop-color="#135772"/>
</linearGradient>
</defs>
</svg>
