<svg width="40" height="40" viewBox="0 0 40 40" fill="none" xmlns="http://www.w3.org/2000/svg">
<g filter="url(#filter0_d)">
<circle cx="20" cy="16" r="16" fill="white"/>
</g>
<path d="M34 16C34 23.7321 27.7321 30 20 30C12.2679 30 6 23.7321 6 16C6 8.26791 12.2679 2 20 2C27.7321 2 34 8.26791 34 16Z" fill="url(#paint0_linear)"/>
<path d="M28.1577 10.5144C28.1577 10.5144 25.8607 4.73883 20.2685 6.5698C14.6764 8.40078 14.4422 14.0761 14.4422 14.0761L10.9144 15.9268C9.59051 16.6213 9.11081 18.2817 9.84705 19.6345L9.84911 19.6383L11.1015 21.9397L29.2361 12.4261L28.1577 10.5144Z" fill="url(#paint1_linear)"/>
<path d="M15.7042 13.472C15.7042 13.472 15.8162 8.95895 20.2641 7.50262C22.5554 6.75241 24.197 7.29742 25.1281 8.39803L15.7042 13.472Z" fill="url(#paint2_linear)"/>
<path d="M12.5376 16.683C14.0426 15.8934 15.9196 16.1717 17.1958 17.3725L22.4247 14.6294C22.0255 12.4196 23.479 10.3649 25.6681 10.0375C27.3255 9.78979 28.9956 10.6138 29.8548 12.0965L10.9215 22.0291C9.91414 20.0558 10.6294 17.684 12.5376 16.683Z" fill="url(#paint3_linear)"/>
<path d="M15.663 22.6263C14.3662 23.3067 12.7302 22.7839 12.009 21.4586C11.2877 20.1334 11.7544 18.5075 13.0512 17.8272C14.3481 17.1468 15.9841 17.6696 16.7053 18.9949C17.4265 20.3201 16.9599 21.946 15.663 22.6263Z" fill="#3A556A"/>
<path d="M13.2836 21.0434C12.8158 20.4335 12.9168 19.5745 13.5092 19.1249C14.1016 18.6753 14.961 18.8054 15.4288 19.4153C15.8966 20.0253 15.7957 20.8842 15.2033 21.3338C14.6109 21.7834 13.7514 21.6534 13.2836 21.0434Z" fill="#E1E6E9"/>
<path d="M24.0158 15.1596C24.7377 16.486 26.3719 17.0083 27.6699 16.3273C28.9679 15.6464 29.4303 14.0242 28.7085 12.6978C27.9866 11.3714 26.3524 10.8492 25.0544 11.5301C23.7601 12.2091 23.294 13.8332 24.0158 15.1596Z" fill="#3A556A"/>
<path d="M25.696 12.7091C26.3542 12.3638 27.1886 12.6305 27.5546 13.3031C27.9207 13.9757 27.6827 14.805 27.0245 15.1503C26.3663 15.4956 25.5319 15.229 25.1658 14.5563C24.8034 13.8817 25.0377 13.0544 25.696 12.7091Z" fill="white"/>
<mask id="mask0" mask-type="alpha" maskUnits="userSpaceOnUse" x="6" y="12" width="28" height="18">
<path d="M33.9677 16.2704C33.9677 23.8532 27.707 30 19.9839 30C12.2607 30 6 23.8532 6 16.2704C6 8.68769 11.9567 16.2704 19.6799 16.2704C27.403 16.2704 33.9677 8.68769 33.9677 16.2704Z" fill="url(#paint4_linear)"/>
</mask>
<g mask="url(#mask0)">
<path d="M35.7593 22.5365H4.45654V18.5647H5.38273C6.38998 18.5647 6.84485 18.34 7.42071 18.0555C8.08797 17.7259 8.84431 17.3522 10.2913 17.3522C11.7384 17.3522 12.4946 17.7258 13.162 18.0555C13.7378 18.34 14.1927 18.5647 15.1999 18.5647C16.2071 18.5647 16.662 18.34 17.2378 18.0555C17.905 17.7259 18.6613 17.3522 20.1083 17.3522C21.5553 17.3522 22.3115 17.7258 22.9787 18.0555C23.5545 18.34 24.0093 18.5647 25.0165 18.5647C26.0237 18.5647 26.4785 18.34 27.0544 18.0555C27.7216 17.7259 28.4779 17.3522 29.9248 17.3522C31.3718 17.3522 32.128 17.7258 32.7953 18.0555C33.3711 18.34 33.8259 18.5647 34.8331 18.5647H35.7593V22.5365Z" fill="#9DE0FA"/>
<path d="M35.7591 18.5647H34.8329C33.8257 18.5647 33.3709 18.34 32.795 18.0555C32.1278 17.7258 31.3715 17.3522 29.9246 17.3522C28.4776 17.3522 27.7213 17.7258 27.0541 18.0555C26.4783 18.34 26.0235 18.5647 25.0163 18.5647C24.0091 18.5647 23.5543 18.34 22.9785 18.0555C22.3112 17.7258 21.5549 17.3522 20.108 17.3522C20.1079 17.3522 20.1078 17.3522 20.1077 17.3522V22.5364H35.7591V18.5647Z" fill="#1DADFB"/>
<path d="M35.7591 30.2204H4.4563V22.1666H5.38248C6.38973 22.1666 6.8446 21.9419 7.42046 21.6574C8.08773 21.3278 8.84407 20.9541 10.2911 20.9541C11.7381 20.9541 12.4944 21.3277 13.1617 21.6574C13.7376 21.9418 14.1924 22.1666 15.1997 22.1666C16.2069 22.1666 16.6618 21.9419 17.2376 21.6574C17.9048 21.3278 18.6611 20.9541 20.1081 20.9541C21.555 20.9541 22.3112 21.3277 22.9785 21.6574C23.5543 21.9418 24.0091 22.1666 25.0163 22.1666C26.0235 22.1666 26.4783 21.9419 27.0541 21.6574C27.7213 21.3278 28.4776 20.9541 29.9246 20.9541C31.3715 20.9541 32.1278 21.3277 32.795 21.6574C33.3709 21.9418 33.8257 22.1666 34.8329 22.1666H35.7591V30.2204Z" fill="#1DADFB"/>
<path d="M35.7591 22.1666H34.8329C33.8257 22.1666 33.3709 21.9419 32.795 21.6574C32.1278 21.3278 31.3715 20.9541 29.9246 20.9541C28.4776 20.9541 27.7213 21.3277 27.0541 21.6574C26.4783 21.9419 26.0235 22.1666 25.0163 22.1666C24.0091 22.1666 23.5543 21.9419 22.9785 21.6574C22.3112 21.3278 21.5549 20.9541 20.108 20.9541C20.1079 20.9541 20.1078 20.9541 20.1077 20.9541V30.2204H35.7591V22.1666Z" fill="#2772EA"/>
</g>
<defs>
<filter id="filter0_d" x="0" y="0" width="40" height="40" filterUnits="userSpaceOnUse" color-interpolation-filters="sRGB">
<feFlood flood-opacity="0" result="BackgroundImageFix"/>
<feColorMatrix in="SourceAlpha" type="matrix" values="0 0 0 0 0 0 0 0 0 0 0 0 0 0 0 0 0 0 127 0"/>
<feOffset dy="4"/>
<feGaussianBlur stdDeviation="2"/>
<feColorMatrix type="matrix" values="0 0 0 0 0 0 0 0 0 0 0 0 0 0 0 0 0 0 0.09 0"/>
<feBlend mode="normal" in2="BackgroundImageFix" result="effect1_dropShadow"/>
<feBlend mode="normal" in="SourceGraphic" in2="effect1_dropShadow" result="shape"/>
</filter>
<linearGradient id="paint0_linear" x1="9.95652" y1="4.73913" x2="30.0435" y2="30" gradientUnits="userSpaceOnUse">
<stop stop-color="#EEFAFF"/>
<stop offset="1" stop-color="#9DE2FF"/>
</linearGradient>
<linearGradient id="paint1_linear" x1="6.47422" y1="8.46729" x2="32.6325" y2="17.4592" gradientUnits="userSpaceOnUse">
<stop stop-color="#FF1572"/>
<stop offset="1" stop-color="#C1125B"/>
</linearGradient>
<linearGradient id="paint2_linear" x1="22.4338" y1="6.61111" x2="23.568" y2="11.1329" gradientUnits="userSpaceOnUse">
<stop stop-color="#EEFEFF"/>
<stop offset="1" stop-color="#9DDCFF"/>
</linearGradient>
<linearGradient id="paint3_linear" x1="26.8932" y1="10.7706" x2="28.6744" y2="16.141" gradientUnits="userSpaceOnUse">
<stop stop-color="#FFD12E"/>
<stop offset="1" stop-color="#FF9636"/>
</linearGradient>
<linearGradient id="paint4_linear" x1="9.95195" y1="5.22706" x2="29.5666" y2="30.3507" gradientUnits="userSpaceOnUse">
<stop stop-color="#FFFDEE"/>
<stop offset="1" stop-color="#9DFFE8"/>
</linearGradient>
</defs>
</svg>
