<svg width="17" height="17" viewBox="0 0 17 17" fill="none" xmlns="http://www.w3.org/2000/svg">
<path fill-rule="evenodd" clip-rule="evenodd" d="M0.500076 8.5C0.500076 8.22386 0.723933 8 1.00008 8L14.787 8L12.1114 5.32433C11.9161 5.12907 11.9161 4.81249 12.1114 4.61723C12.3066 4.42196 12.6232 4.42196 12.8185 4.61723L16.2809 8.07966C16.3067 8.09717 16.3312 8.11735 16.3541 8.14021C16.4541 8.2402 16.5029 8.37202 16.5004 8.50306C16.5013 8.6321 16.4525 8.76141 16.354 8.85987C16.3313 8.88258 16.3069 8.90266 16.2813 8.92009L12.8185 12.3829C12.6233 12.5781 12.3067 12.5781 12.1114 12.3829C11.9162 12.1876 11.9162 11.871 12.1114 11.6757L14.7872 9L1.00008 9C0.723933 9 0.500076 8.77614 0.500076 8.5Z" fill="#D49D8B"/>
</svg>
