<svg width="40" height="40" viewBox="0 0 40 40" fill="none" xmlns="http://www.w3.org/2000/svg">
<g filter="url(#filter0_d)">
<circle cx="20" cy="16" r="16" fill="white"/>
</g>
<path d="M34 16C34 23.7321 27.7321 30 20 30C12.2679 30 6 23.7321 6 16C6 8.26791 12.2679 2 20 2C27.7321 2 34 8.26791 34 16Z" fill="url(#paint0_linear)"/>
<path d="M34 16C34 23.7321 27.7321 30 20 30C12.2679 30 6 23.7321 6 16C6 8.26791 12.2679 2 20 2C27.7321 2 34 8.26791 34 16Z" fill="url(#paint1_linear)"/>
<mask id="mask0" mask-type="alpha" maskUnits="userSpaceOnUse" x="6" y="2" width="28" height="28">
<path d="M34 16C34 23.7321 27.7321 30 20 30C12.2679 30 6 23.7321 6 16C6 8.26791 12.2679 2 20 2C27.7321 2 34 8.26791 34 16Z" fill="url(#paint2_linear)"/>
</mask>
<g mask="url(#mask0)">
<path d="M25.5567 16.3498C23.6438 16.3498 21.4371 14.5017 21.4371 12.2302V8.1604H19.1977C19.0845 8.2007 18.9726 8.24448 18.8624 8.2925L15.7727 21.699L37.425 21.3185V8.1604C37.425 8.1604 30.9339 16.3498 25.5567 16.3498Z" fill="#26CBFF"/>
<path d="M17.6326 9.04979L11.8267 13.8746C11.5229 14.1269 11.0371 14.2901 10.5888 14.2901H3.72998V19.6393L18.8623 21.6991V8.29254C18.4212 8.48484 18.0065 8.73908 17.6326 9.04979Z" fill="#30F3FF"/>
<path d="M25.2476 7.86243H22.8445L25.2476 12.0643C25.2476 12.7278 25.7854 13.2659 26.4491 13.2659C27.1126 13.2659 27.6507 12.7278 27.6507 12.0643V10.2655C27.6507 8.93834 26.5747 7.86243 25.2476 7.86243Z" fill="#03B2E9"/>
<path d="M22.8446 7.86243L20.6343 7.87088L22.8446 12.0643C22.8446 12.7278 23.3824 13.2659 24.0461 13.2659C24.7096 13.2659 25.2477 12.7278 25.2477 12.0643V10.2655C25.2477 8.93834 24.1717 7.86243 22.8446 7.86243Z" fill="#26CBFF"/>
<path d="M20.6344 7.87091C20.1421 7.89852 19.6582 7.99679 19.1978 8.16047C19.9391 8.5697 20.4416 9.35878 20.4416 10.2655V12.0644C20.4416 12.7278 20.9794 13.2659 21.6431 13.2659C22.3066 13.2659 22.8447 12.7278 22.8447 12.0644V10.2655C22.8447 9.0033 21.8712 7.96917 20.6344 7.87091Z" fill="#30F3FF"/>
<path fill-rule="evenodd" clip-rule="evenodd" d="M18.8576 19.0502L16.7979 24.3047L24.1731 23.3048L23.7811 24.3047L34.6293 22.834V19.6394C33.9691 19.6394 33.3604 19.42 32.8716 19.0503C32.3827 19.42 31.774 19.6394 31.1138 19.6394C30.4538 19.6394 29.8451 19.42 29.3562 19.0503C28.8742 19.4149 28.2755 19.6333 27.6258 19.6392C26.9734 19.6348 26.3721 19.4161 25.8883 19.0502C25.8804 19.0562 25.8725 19.0621 25.8646 19.068C25.8567 19.0621 25.8488 19.0562 25.8409 19.0503L25.8218 19.099C25.3448 19.4391 24.7611 19.6393 24.1305 19.6393C23.4705 19.6393 22.8618 19.4199 22.373 19.0502C21.8841 19.4199 21.2754 19.6393 20.6152 19.6393C19.9552 19.6393 19.3465 19.4199 18.8576 19.0502Z" fill="#1DADFB"/>
<path fill-rule="evenodd" clip-rule="evenodd" d="M11.8558 23.133V24.3047L3.06738 22.834V19.6393C3.72761 19.6393 4.33634 19.4199 4.82517 19.0502C5.31399 19.4199 5.92273 19.6393 6.58295 19.6393C7.24293 19.6393 7.85166 19.4199 8.34049 19.0502C8.8271 19.4182 9.43254 19.6373 10.0893 19.6393C10.7417 19.6348 11.343 19.4162 11.8268 19.0503C11.8316 19.0539 11.8364 19.0576 11.8413 19.0612C11.8461 19.0575 11.851 19.0539 11.8558 19.0502V19.072C12.3396 19.4285 12.9373 19.6394 13.5846 19.6394C14.2445 19.6394 14.8533 19.42 15.3421 19.0503C15.8309 19.42 16.4397 19.6394 17.0999 19.6394C17.7599 19.6394 18.3686 19.42 18.8574 19.0503V24.3047L11.8558 23.133Z" fill="#30CDFF"/>
<path d="M32.8715 22.2448C33.3604 22.6142 33.9691 22.8339 34.6291 22.8339V30.9457H17.4841L18.7743 25.3426L17.4841 23.8419L18.8573 22.2448C19.3461 22.6142 19.9549 22.8339 20.6151 22.8339C21.2753 22.8339 21.8838 22.6142 22.3729 22.2448C22.8617 22.6142 23.4702 22.8339 24.1304 22.8339C24.7361 22.8339 25.2984 22.6491 25.7646 22.3333L25.8407 22.2448L25.8644 22.2626L25.8882 22.2448C26.3712 22.6098 26.9712 22.8286 27.6221 22.8338C28.2732 22.8286 28.873 22.6098 29.3562 22.2448C29.8451 22.6142 30.4535 22.8339 31.1138 22.8339C31.774 22.8339 32.3827 22.6142 32.8715 22.2448Z" fill="#093F61"/>
<path d="M4.82517 22.2448C4.33634 22.6142 3.72761 22.8339 3.06738 22.8339V32.6857L18.8574 34.41V22.2448C18.3686 22.6142 17.7598 22.8339 17.0998 22.8339C16.4396 22.8339 15.8309 22.6142 15.3421 22.2448C14.8532 22.6142 14.2445 22.8339 13.5845 22.8339C12.9373 22.8339 12.3396 22.6228 11.8558 22.2665V22.2448L11.8413 22.2557L11.8267 22.2448C11.3415 22.6115 10.7382 22.8306 10.0836 22.8339C9.42904 22.8306 8.82569 22.6115 8.34049 22.2448C7.85166 22.6142 7.24293 22.8339 6.58295 22.8339C5.92273 22.8339 5.31399 22.6142 4.82517 22.2448Z" fill="#0A9EDE"/>
</g>
<defs>
<filter id="filter0_d" x="0" y="0" width="40" height="40" filterUnits="userSpaceOnUse" color-interpolation-filters="sRGB">
<feFlood flood-opacity="0" result="BackgroundImageFix"/>
<feColorMatrix in="SourceAlpha" type="matrix" values="0 0 0 0 0 0 0 0 0 0 0 0 0 0 0 0 0 0 127 0"/>
<feOffset dy="4"/>
<feGaussianBlur stdDeviation="2"/>
<feColorMatrix type="matrix" values="0 0 0 0 0 0 0 0 0 0 0 0 0 0 0 0 0 0 0.09 0"/>
<feBlend mode="normal" in2="BackgroundImageFix" result="effect1_dropShadow"/>
<feBlend mode="normal" in="SourceGraphic" in2="effect1_dropShadow" result="shape"/>
</filter>
<linearGradient id="paint0_linear" x1="9.95652" y1="4.73913" x2="30.0435" y2="30" gradientUnits="userSpaceOnUse">
<stop stop-color="#EEFAFF"/>
<stop offset="1" stop-color="#9DE2FF"/>
</linearGradient>
<linearGradient id="paint1_linear" x1="9.95652" y1="4.73913" x2="30.0435" y2="30" gradientUnits="userSpaceOnUse">
<stop stop-color="#E0FFF4"/>
<stop offset="1" stop-color="#58EBFF"/>
</linearGradient>
<linearGradient id="paint2_linear" x1="9.95652" y1="4.73913" x2="30.0435" y2="30" gradientUnits="userSpaceOnUse">
<stop stop-color="white"/>
<stop offset="1"/>
</linearGradient>
</defs>
</svg>
