<svg width="40" height="40" viewBox="0 0 40 40" fill="none" xmlns="http://www.w3.org/2000/svg">
<g filter="url(#filter0_d)">
<circle cx="20" cy="16" r="16" fill="white"/>
</g>
<path d="M34 16C34 23.7321 27.7321 30 20 30C12.2679 30 6 23.7321 6 16C6 8.26791 12.2679 2 20 2C27.7321 2 34 8.26791 34 16Z" fill="url(#paint0_linear)"/>
<mask id="mask0" mask-type="alpha" maskUnits="userSpaceOnUse" x="6" y="2" width="28" height="28">
<path d="M34 16C34 23.7321 27.7321 30 20 30C12.2679 30 6 23.7321 6 16C6 8.26791 12.2679 2 20 2C27.7321 2 34 8.26791 34 16Z" fill="url(#paint1_linear)"/>
</mask>
<g mask="url(#mask0)">
<path d="M15.3115 7.17584C15.3115 7.17584 17.9901 7.97265 17.9901 17.8023H22.3168C22.3168 7.97265 24.9953 7.17584 24.9953 7.17584H15.3115Z" fill="white"/>
<path d="M18.0127 10.1288C19.5466 10.1288 20.79 8.97396 20.79 7.54934C20.79 6.12473 19.5466 4.96985 18.0127 4.96985C16.4788 4.96985 15.2354 6.12473 15.2354 7.54934C15.2354 8.97396 16.4788 10.1288 18.0127 10.1288Z" fill="white"/>
<path d="M23.5188 10.3297C25.0526 10.3297 26.2961 9.17483 26.2961 7.75021C26.2961 6.32559 25.0526 5.17072 23.5188 5.17072C21.9849 5.17072 20.7415 6.32559 20.7415 7.75021C20.7415 9.17483 21.9849 10.3297 23.5188 10.3297Z" fill="white"/>
<path opacity="0.7" d="M26.2961 7.75019C28.7176 7.75019 30.6806 5.92701 30.6806 3.67801C30.6806 1.42901 28.7176 -0.394165 26.2961 -0.394165C23.8746 -0.394165 21.9116 1.42901 21.9116 3.67801C21.9116 5.92701 23.8746 7.75019 26.2961 7.75019Z" fill="white"/>
<path opacity="0.7" d="M15.2219 7.75019C17.6434 7.75019 19.6064 5.92701 19.6064 3.67801C19.6064 1.42901 17.6434 -0.394165 15.2219 -0.394165C12.8004 -0.394165 10.8374 1.42901 10.8374 3.67801C10.8374 5.92701 12.8004 7.75019 15.2219 7.75019Z" fill="white"/>
<path d="M20.1535 7.75019C22.575 7.75019 24.538 5.92701 24.538 3.67801C24.538 1.42901 22.575 -0.394165 20.1535 -0.394165C17.732 -0.394165 15.769 1.42901 15.769 3.67801C15.769 5.92701 17.732 7.75019 20.1535 7.75019Z" fill="white"/>
<path d="M32.3174 25.2746C31.5375 28.6374 29.8171 31.5915 27.3406 33.9819H13.2228H1.13086L13.2228 18.6855L14.4948 17.057L17.0019 13.8485C17.2797 13.4931 17.7229 13.2834 18.1951 13.2834H22.1724C22.6408 13.2834 23.0808 13.4902 23.3586 13.8407L25.7365 16.8388L32.3174 25.2746Z" fill="#384C81"/>
<path d="M17.4334 27.466L13.2227 23.5545L11.0186 21.5074L13.2051 18.7083L13.2227 18.7445L17.4334 27.466Z" fill="#224278"/>
<path d="M17.4337 27.466L13.2229 23.5544V18.7444L17.4337 27.466Z" fill="#1A3863"/>
<path d="M39.0139 33.7331L27.3405 33.9819H27.1071L22.0897 21.1129L25.8987 22.4811L21.8716 13.2834H22.1723C22.6407 13.2834 23.0815 13.4902 23.3594 13.8407L39.0139 33.7331Z" fill="#1A3863"/>
<path d="M24.2228 16.8388C23.9511 16.8388 23.7062 16.7365 23.5286 16.5715C23.3511 16.4066 23.2409 16.1792 23.2409 15.9269V15.4527C23.2409 15.4321 23.2401 15.4115 23.2386 15.3909C23.1965 14.8137 22.259 14.8585 22.259 15.4364V17.2781C22.259 17.6257 21.9559 17.9071 21.5817 17.9071C21.3949 17.9071 21.225 17.8368 21.1026 17.7231C20.9801 17.6093 20.9044 17.4522 20.9044 16.3334V16.3327C20.9044 15.9858 20.6013 15.7044 20.227 15.7044C20.0403 15.7044 19.8712 15.7747 19.7487 15.8885C19.6263 16.0022 19.5505 16.1593 19.5505 16.3327V22.8508C19.5505 23.3106 19.1487 23.6838 18.6528 23.6838C18.4056 23.6838 18.1806 23.5907 18.0184 23.44C17.8561 23.2886 17.7558 23.0811 17.7558 22.8508V16.2204C17.7558 15.9354 17.5071 15.7044 17.2002 15.7044H17.1505C16.8987 15.7044 16.6852 15.8636 16.6132 16.0882C16.4349 16.6483 15.877 17.057 15.2165 17.057C14.9992 17.057 14.8477 16.8914 14.8477 16.7144C14.8477 16.6469 14.8698 16.5772 14.9188 16.5147L16.6791 14.2622L17.002 13.8485C17.2798 13.4931 17.7229 13.2834 18.1951 13.2834H22.1725C22.6408 13.2834 23.0809 13.4902 23.3587 13.8407L23.6932 14.2622L24.8388 15.7065C25.2108 16.1763 24.8503 16.8388 24.2228 16.8388Z" fill="#DE1263"/>
<path d="M23.6931 14.2622H16.679L17.0019 13.8485C17.2797 13.4931 17.7228 13.2834 18.195 13.2834H22.1724C22.6407 13.2834 23.0808 13.4902 23.3586 13.8407L23.6931 14.2622Z" fill="#BC0E5C"/>
</g>
<defs>
<filter id="filter0_d" x="0" y="0" width="40" height="40" filterUnits="userSpaceOnUse" color-interpolation-filters="sRGB">
<feFlood flood-opacity="0" result="BackgroundImageFix"/>
<feColorMatrix in="SourceAlpha" type="matrix" values="0 0 0 0 0 0 0 0 0 0 0 0 0 0 0 0 0 0 127 0"/>
<feOffset dy="4"/>
<feGaussianBlur stdDeviation="2"/>
<feColorMatrix type="matrix" values="0 0 0 0 0 0 0 0 0 0 0 0 0 0 0 0 0 0 0.09 0"/>
<feBlend mode="normal" in2="BackgroundImageFix" result="effect1_dropShadow"/>
<feBlend mode="normal" in="SourceGraphic" in2="effect1_dropShadow" result="shape"/>
</filter>
<linearGradient id="paint0_linear" x1="9.95652" y1="4.73913" x2="30.0435" y2="30" gradientUnits="userSpaceOnUse">
<stop stop-color="#FFF3F6"/>
<stop offset="1" stop-color="#CEBDFF"/>
</linearGradient>
<linearGradient id="paint1_linear" x1="9.95652" y1="4.73913" x2="30.0435" y2="30" gradientUnits="userSpaceOnUse">
<stop stop-color="#26ABAB"/>
<stop offset="1" stop-color="#9DE2FF"/>
</linearGradient>
</defs>
</svg>
