<svg width="152" height="118" viewBox="0 0 152 118" fill="none" xmlns="http://www.w3.org/2000/svg">
<path d="M35.3692 5.71094C37.0162 5.71094 37.0432 6.19694 37.1242 10.4629L40.5262 10.0309C40.3642 4.84694 40.2292 3.01094 35.3692 3.01094C30.1852 3.01094 30.0232 6.60194 30.0232 13.4329C30.0232 20.3179 30.1852 23.8279 35.3692 23.8279C40.0942 23.8279 40.2022 21.5329 40.5262 16.6729L37.0702 16.3759C37.0162 20.0749 37.0432 21.0469 35.3692 21.0469C33.8572 21.0469 33.6952 19.1299 33.6952 13.4329C33.6952 7.76294 33.8572 5.71094 35.3692 5.71094ZM47.8989 3.01094C42.5799 3.01094 42.2829 6.60194 42.2829 13.4329C42.2829 20.3179 42.5799 23.8279 47.8989 23.8279C53.2179 23.8279 53.3529 20.4529 53.3529 13.4329C53.3529 6.46694 53.2179 3.01094 47.8989 3.01094ZM47.8989 5.71094C49.5999 5.71094 49.6809 7.76294 49.6809 13.4329C49.6809 19.1029 49.5999 21.0469 47.8989 21.0469C46.1979 21.0469 45.9549 19.1299 45.9549 13.4329C45.9549 7.76294 46.1979 5.71094 47.8989 5.71094ZM55.4706 23.4769H58.4676V11.4349L61.8966 23.4769H65.4336V3.36194H62.4906V15.4039L59.0886 3.36194H55.4706V23.4769ZM66.8927 3.36194V6.06194H69.8627V23.4769H73.3187V6.06194H76.3427V3.36194H66.8927ZM82.6743 3.01094C77.3553 3.01094 77.0583 6.60194 77.0583 13.4329C77.0583 20.3179 77.3553 23.8279 82.6743 23.8279C87.9933 23.8279 88.1283 20.4529 88.1283 13.4329C88.1283 6.46694 87.9933 3.01094 82.6743 3.01094ZM82.6743 5.71094C84.3753 5.71094 84.4563 7.76294 84.4563 13.4329C84.4563 19.1029 84.3753 21.0469 82.6743 21.0469C80.9733 21.0469 80.7303 19.1299 80.7303 13.4329C80.7303 7.76294 80.9733 5.71094 82.6743 5.71094ZM94.755 3.01094C91.137 3.01094 90.057 4.84694 90.057 7.89794C90.057 11.0839 91.839 12.7039 93.459 13.8649C94.971 14.9719 95.835 15.6469 95.835 18.0499C95.835 20.1559 95.754 21.0469 94.377 21.0469C93.108 21.0469 92.811 20.0749 92.649 16.9969L89.679 17.5909C89.949 22.1269 90.786 23.8279 94.35 23.8279C98.022 23.8279 99.345 21.8839 99.345 18.1849C99.345 13.5949 97.023 12.5419 95.133 11.1919C94.053 10.4359 93.405 9.70694 93.405 7.97894C93.405 6.52094 93.459 5.71094 94.809 5.71094C96.051 5.71094 96.159 6.35894 96.267 7.92494L98.994 7.54694C98.886 5.00894 98.373 3.01094 94.755 3.01094ZM106.693 3.01094C101.374 3.01094 101.077 6.60194 101.077 13.4329C101.077 20.3179 101.374 23.8279 106.693 23.8279C112.012 23.8279 112.147 20.4529 112.147 13.4329C112.147 6.46694 112.012 3.01094 106.693 3.01094ZM106.693 5.71094C108.394 5.71094 108.475 7.76294 108.475 13.4329C108.475 19.1029 108.394 21.0469 106.693 21.0469C104.992 21.0469 104.749 19.1299 104.749 13.4329C104.749 7.76294 104.992 5.71094 106.693 5.71094ZM30.2932 29.3619V49.4769H38.1502V46.8039H33.7762V40.2159H36.9892L37.2592 37.4619H33.7762V32.0619H38.0152V29.3619H30.2932ZM44.9068 49.4769H48.2548L50.3608 36.3279V49.4769H53.1958V29.3619H49.3078L46.6888 44.0499L44.1508 29.3619H39.9928V49.4769H42.6388V36.3549L44.9068 49.4769ZM55.5246 29.3619V49.4769H63.3816V46.8039H59.0076V40.2159H62.2206L62.4906 37.4619H59.0076V32.0619H63.2466V29.3619H55.5246ZM74.8902 49.4769L72.7032 40.0539C74.4042 39.4869 74.7282 37.2459 74.7282 34.5189C74.7282 30.9279 74.0802 29.3619 69.5982 29.3619H65.3322V49.4769H68.8152V40.4589H69.5442L71.0562 49.4769H74.8902ZM68.8152 37.8129V31.8729H69.8142C71.4342 31.8729 71.4882 32.4939 71.4882 34.6539C71.4882 36.9759 71.4342 37.8129 69.9222 37.8129H68.8152ZM81.9656 38.8389L81.5336 41.5389H83.3426V45.4269C83.1266 46.5339 82.5596 47.0739 81.5066 47.0739C79.8596 47.0739 79.7246 43.9149 79.7246 39.2979C79.7246 34.1949 79.8596 31.7379 81.7496 31.7379C83.5046 31.7379 83.5586 32.9529 83.7476 36.0039L86.5826 35.3019C86.3936 30.8199 86.2856 29.0109 81.5876 29.0109C76.3496 29.0109 76.2146 33.0339 76.2146 39.2979C76.2146 45.7239 76.3496 49.8279 80.6696 49.8279C82.5866 49.8279 83.3156 49.2609 83.7476 48.2619L84.0446 49.4769H86.5826V38.8389H81.9656ZM88.8498 29.3619V49.4769H96.7068V46.8039H92.3328V40.2159H95.5458L95.8158 37.4619H92.3328V32.0619H96.5718V29.3619H88.8498ZM98.6034 49.4769H101.6V37.4349L105.029 49.4769H108.566V29.3619H105.623V41.4039L102.221 29.3619H98.6034V49.4769ZM116.02 31.7109C117.667 31.7109 117.694 32.1969 117.775 36.4629L121.177 36.0309C121.015 30.8469 120.88 29.0109 116.02 29.0109C110.836 29.0109 110.674 32.6019 110.674 39.4329C110.674 46.3179 110.836 49.8279 116.02 49.8279C120.745 49.8279 120.853 47.5329 121.177 42.6729L117.721 42.3759C117.667 46.0749 117.694 47.0469 116.02 47.0469C114.508 47.0469 114.346 45.1299 114.346 39.4329C114.346 33.7629 114.508 31.7109 116.02 31.7109ZM125.109 29.3619H121.707L124.947 41.0259V49.4769H128.403V41.0259L131.508 29.3619H128.619L126.783 37.4619L125.109 29.3619ZM39.8512 76.4769L37.6642 67.0539C39.3652 66.4869 39.6892 64.2459 39.6892 61.5189C39.6892 57.9279 39.0412 56.3619 34.5592 56.3619H30.2932V76.4769H33.7762V67.4589H34.5052L36.0172 76.4769H39.8512ZM33.7762 64.8129V58.8729H34.7752C36.3952 58.8729 36.4492 59.4939 36.4492 61.6539C36.4492 63.9759 36.3952 64.8129 34.8832 64.8129H33.7762ZM41.4455 56.3619V76.4769H49.3025V73.8039H44.9285V67.2159H48.1415L48.4115 64.4619H44.9285V59.0619H49.1675V56.3619H41.4455ZM55.7081 56.0109C52.0901 56.0109 51.0101 57.8469 51.0101 60.8979C51.0101 64.0839 52.7921 65.7039 54.4121 66.8649C55.9241 67.9719 56.7881 68.6469 56.7881 71.0499C56.7881 73.1559 56.7071 74.0469 55.3301 74.0469C54.0611 74.0469 53.7641 73.0749 53.6021 69.9969L50.6321 70.5909C50.9021 75.1269 51.7391 76.8279 55.3031 76.8279C58.9751 76.8279 60.2981 74.8839 60.2981 71.1849C60.2981 66.5949 57.9761 65.5419 56.0861 64.1919C55.0061 63.4359 54.3581 62.7069 54.3581 60.9789C54.3581 59.5209 54.4121 58.7109 55.7621 58.7109C57.0041 58.7109 57.1121 59.3589 57.2201 60.9249L59.9471 60.5469C59.8391 58.0089 59.3261 56.0109 55.7081 56.0109ZM62.3 56.3619V76.4769H65.756V68.2149H66.053C70.886 68.2149 72.02 65.7849 72.02 61.8159C72.02 58.2519 70.886 56.3619 65.783 56.3619H62.3ZM66.674 59.1699C68.564 59.1699 68.591 60.1419 68.591 62.0589C68.591 64.2459 68.456 65.4879 66.485 65.4879H65.756V59.1699H66.674ZM79.1411 56.0109C73.8221 56.0109 73.5251 59.6019 73.5251 66.4329C73.5251 73.3179 73.8221 76.8279 79.1411 76.8279C84.4601 76.8279 84.5951 73.4529 84.5951 66.4329C84.5951 59.4669 84.4601 56.0109 79.1411 56.0109ZM79.1411 58.7109C80.8421 58.7109 80.9231 60.7629 80.9231 66.4329C80.9231 72.1029 80.8421 74.0469 79.1411 74.0469C77.4401 74.0469 77.1971 72.1299 77.1971 66.4329C77.1971 60.7629 77.4401 58.7109 79.1411 58.7109ZM86.7128 76.4769H89.7098V64.4349L93.1388 76.4769H96.6758V56.3619H93.7328V68.4039L90.3308 56.3619H86.7128V76.4769ZM103.508 56.0109C99.8899 56.0109 98.8099 57.8469 98.8099 60.8979C98.8099 64.0839 100.592 65.7039 102.212 66.8649C103.724 67.9719 104.588 68.6469 104.588 71.0499C104.588 73.1559 104.507 74.0469 103.13 74.0469C101.861 74.0469 101.564 73.0749 101.402 69.9969L98.4319 70.5909C98.7019 75.1269 99.5389 76.8279 103.103 76.8279C106.775 76.8279 108.098 74.8839 108.098 71.1849C108.098 66.5949 105.776 65.5419 103.886 64.1919C102.806 63.4359 102.158 62.7069 102.158 60.9789C102.158 59.5209 102.212 58.7109 103.562 58.7109C104.804 58.7109 104.912 59.3589 105.02 60.9249L107.747 60.5469C107.639 58.0089 107.126 56.0109 103.508 56.0109ZM110.1 56.3619V76.4769H117.957V73.8039H113.583V67.2159H116.796L117.066 64.4619H113.583V59.0619H117.822V56.3619H110.1Z" fill="#243489"/>
<path d="M6.37598 4.29149H12.376V22.2915H6.37598V4.29149Z" fill="#FF364E"/>
<path d="M0.375854 16.2915L0.375854 10.2915L18.3759 10.2915L18.3759 16.2915L0.375854 16.2915Z" fill="#FF364E"/>
</svg>
