<svg width="80" height="107" viewBox="0 0 80 107" fill="none" xmlns="http://www.w3.org/2000/svg">
<g filter="url(#filter0_dd)">
<path d="M40 12C32.5739 12 25.452 14.909 20.201 20.0871C14.95 25.2652 12 32.2882 12 39.6111C12 61.963 40 83 40 83C40 83 68 61.963 68 39.6111C68 32.2882 65.05 25.2652 59.799 20.0871C54.548 14.909 47.4261 12 40 12ZM40 52.7593C37.3629 52.7593 34.7851 51.9881 32.5924 50.5434C30.3997 49.0987 28.6908 47.0452 27.6816 44.6427C26.6724 42.2402 26.4084 39.5965 26.9229 37.046C27.4373 34.4955 28.7072 32.1528 30.5719 30.314C32.4366 28.4752 34.8124 27.2229 37.3988 26.7156C39.9852 26.2083 42.6661 26.4687 45.1024 27.4638C47.5388 28.459 49.6212 30.1442 51.0863 32.3064C52.5513 34.4686 53.3333 37.0107 53.3333 39.6111C53.3333 43.0982 51.9286 46.4425 49.4281 48.9083C46.9276 51.374 43.5362 52.7593 40 52.7593Z" fill="white"/>
</g>
<path d="M63 40C63 52.7027 52.7027 63 40 63C27.2973 63 17 52.7027 17 40C17 27.2973 27.2973 17 40 17C52.7027 17 63 27.2973 63 40Z" fill="url(#paint0_linear)"/>
<path d="M52.983 30.5452C52.983 30.5452 49.2049 20.8699 40.0072 23.9372C30.8095 27.0045 30.4243 36.5118 30.4243 36.5118L24.6219 39.6122C22.4445 40.7756 21.6555 43.5571 22.8664 45.8234L22.8698 45.8298L24.9298 49.685L54.7567 33.7478L52.983 30.5452Z" fill="url(#paint1_linear)"/>
<path d="M32.5002 35.5C32.5002 35.5 32.6843 27.9396 40 25.5C43.7686 24.2432 46.4687 25.1562 48.0002 27L32.5002 35.5Z" fill="url(#paint2_linear)"/>
<path d="M27.292 40.8789C29.7675 39.5562 32.8548 40.0224 34.9538 42.0339L43.554 37.4386C42.8974 33.7368 45.2881 30.2948 48.8886 29.7462C51.6146 29.3313 54.3616 30.7117 55.7747 33.1955L24.634 49.8347C22.9772 46.529 24.1536 42.5558 27.292 40.8789Z" fill="url(#paint3_linear)"/>
<path d="M32.4329 50.8354C30.2999 51.9751 27.6091 51.0993 26.4228 48.8792C25.2366 46.6591 26.0041 43.9354 28.1371 42.7957C30.2701 41.656 32.9609 42.5318 34.1472 44.7519C35.3334 46.972 34.5659 49.6956 32.4329 50.8354Z" fill="#3A556A"/>
<path d="M28.5197 48.1836C27.7502 47.1618 27.9163 45.7229 28.8907 44.9697C29.865 44.2166 31.2786 44.4344 32.048 45.4562C32.8174 46.478 32.6513 47.917 31.677 48.6701C30.7027 49.4233 29.2891 49.2055 28.5197 48.1836Z" fill="#E1E6E9"/>
<path d="M46.1713 38.327C47.3586 40.549 50.0465 41.4239 52.1814 40.2832C54.3162 39.1425 55.0768 36.425 53.8896 34.203C52.7023 31.981 50.0144 31.1061 47.8795 32.2468C45.7508 33.3843 44.9841 36.1051 46.1713 38.327Z" fill="#3A556A"/>
<path d="M48.9346 34.2219C50.0173 33.6434 51.3896 34.0901 51.9917 35.2169C52.5938 36.3437 52.2024 37.7329 51.1197 38.3114C50.0371 38.8898 48.6647 38.4431 48.0626 37.3163C47.4666 36.1862 47.852 34.8004 48.9346 34.2219Z" fill="white"/>
<mask id="mask0" mask-type="alpha" maskUnits="userSpaceOnUse" x="17" y="34" width="46" height="29">
<path d="M63 40C63 52.7027 52.7027 63 40 63C27.2973 63 17 52.7027 17 40C17 27.2973 26.7973 40 39.5 40C52.2027 40 63 27.2973 63 40Z" fill="url(#paint4_linear)"/>
</mask>
<g mask="url(#mask0)">
<path d="M65.4859 50.6847H14.0005V44.0312H15.5238C17.1805 44.0312 17.9287 43.6548 18.8758 43.1781C19.9733 42.626 21.2173 42 23.5973 42C25.9773 42 27.2212 42.6259 28.3188 43.1781C29.2659 43.6547 30.014 44.0312 31.6707 44.0312C33.3273 44.0312 34.0755 43.6548 35.0225 43.1781C36.1199 42.626 37.3639 42 39.7438 42C42.1237 42 43.3675 42.6259 44.4649 43.1781C45.412 43.6547 46.16 44.0312 47.8166 44.0312C49.4732 44.0312 50.2213 43.6548 51.1684 43.1781C52.2658 42.626 53.5097 42 55.8896 42C58.2695 42 59.5133 42.6259 60.6107 43.1781C61.5579 43.6547 62.3059 44.0312 63.9625 44.0312H65.4859V50.6847Z" fill="#9DE0FA"/>
<path d="M65.4854 44.0312H63.962C62.3054 44.0312 61.5574 43.6548 60.6102 43.1781C59.5129 42.6259 58.269 42 55.8891 42C53.5092 42 52.2653 42.6259 51.1679 43.1781C50.2208 43.6547 49.4727 44.0312 47.8161 44.0312C46.1595 44.0312 45.4115 43.6548 44.4644 43.1781C43.367 42.6259 42.1231 42 39.7433 42C39.7431 42 39.7429 42 39.7427 42V50.6846H65.4854V44.0312Z" fill="#1DADFB"/>
<path d="M65.4854 63.5569H14V50.065H15.5233C17.18 50.065 17.9282 49.6886 18.8753 49.212C19.9728 48.6598 21.2168 48.0339 23.5968 48.0339C25.9768 48.0339 27.2207 48.6597 28.3183 49.212C29.2654 49.6885 30.0136 50.065 31.6702 50.065C33.3268 50.065 34.075 49.6886 35.022 49.212C36.1194 48.6598 37.3634 48.0339 39.7433 48.0339C42.1232 48.0339 43.367 48.6597 44.4645 49.212C45.4115 49.6885 46.1596 50.065 47.8161 50.065C49.4727 50.065 50.2208 49.6886 51.1679 49.212C52.2653 48.6598 53.5092 48.0339 55.8891 48.0339C58.269 48.0339 59.5128 48.6597 60.6103 49.212C61.5574 49.6885 62.3055 50.065 63.962 50.065H65.4854V63.5569Z" fill="#1DADFB"/>
<path d="M65.4854 50.065H63.962C62.3054 50.065 61.5574 49.6886 60.6102 49.212C59.5129 48.6598 58.269 48.0339 55.8891 48.0339C53.5092 48.0339 52.2653 48.6597 51.1679 49.212C50.2208 49.6886 49.4727 50.065 47.8161 50.065C46.1595 50.065 45.4115 49.6886 44.4644 49.212C43.367 48.6598 42.1231 48.0339 39.7433 48.0339C39.7431 48.0339 39.7429 48.0339 39.7427 48.0339V63.5568H65.4854V50.065Z" fill="#2772EA"/>
</g>
<defs>
<filter id="filter0_dd" x="0" y="12" width="80" height="95" filterUnits="userSpaceOnUse" color-interpolation-filters="sRGB">
<feFlood flood-opacity="0" result="BackgroundImageFix"/>
<feColorMatrix in="SourceAlpha" type="matrix" values="0 0 0 0 0 0 0 0 0 0 0 0 0 0 0 0 0 0 127 0"/>
<feOffset dy="12"/>
<feGaussianBlur stdDeviation="6"/>
<feColorMatrix type="matrix" values="0 0 0 0 0 0 0 0 0 0 0 0 0 0 0 0 0 0 0.11 0"/>
<feBlend mode="normal" in2="BackgroundImageFix" result="effect1_dropShadow"/>
<feColorMatrix in="SourceAlpha" type="matrix" values="0 0 0 0 0 0 0 0 0 0 0 0 0 0 0 0 0 0 127 0"/>
<feOffset dy="4"/>
<feGaussianBlur stdDeviation="2"/>
<feColorMatrix type="matrix" values="0 0 0 0 0 0 0 0 0 0 0 0 0 0 0 0 0 0 0.09 0"/>
<feBlend mode="normal" in2="effect1_dropShadow" result="effect2_dropShadow"/>
<feBlend mode="normal" in="SourceGraphic" in2="effect2_dropShadow" result="shape"/>
</filter>
<linearGradient id="paint0_linear" x1="23.5" y1="21.5" x2="56.5" y2="63" gradientUnits="userSpaceOnUse">
<stop stop-color="#EBF8FF"/>
<stop offset="1" stop-color="#9DDCFF"/>
</linearGradient>
<linearGradient id="paint1_linear" x1="17.319" y1="27.1159" x2="60.5073" y2="41.692" gradientUnits="userSpaceOnUse">
<stop stop-color="#FF1572"/>
<stop offset="1" stop-color="#C1125B"/>
</linearGradient>
<linearGradient id="paint2_linear" x1="43.5687" y1="24.0065" x2="45.4996" y2="31.5648" gradientUnits="userSpaceOnUse">
<stop stop-color="#EEFEFF"/>
<stop offset="1" stop-color="#9DDCFF"/>
</linearGradient>
<linearGradient id="paint3_linear" x1="50.9036" y1="30.9744" x2="53.9315" y2="39.9377" gradientUnits="userSpaceOnUse">
<stop stop-color="#FFD12E"/>
<stop offset="1" stop-color="#FF9636"/>
</linearGradient>
<linearGradient id="paint4_linear" x1="23.5" y1="21.5" x2="56.5" y2="63" gradientUnits="userSpaceOnUse">
<stop stop-color="#FFFDEE"/>
<stop offset="1" stop-color="#9DFFE8"/>
</linearGradient>
</defs>
</svg>
