<svg width="80" height="107" viewBox="0 0 80 107" fill="none" xmlns="http://www.w3.org/2000/svg">
<g filter="url(#filter0_dd)">
<path d="M40 12C32.5739 12 25.452 14.909 20.201 20.0871C14.95 25.2652 12 32.2882 12 39.6111C12 61.963 40 83 40 83C40 83 68 61.963 68 39.6111C68 32.2882 65.05 25.2652 59.799 20.0871C54.548 14.909 47.4261 12 40 12ZM40 52.7593C37.3629 52.7593 34.7851 51.9881 32.5924 50.5434C30.3997 49.0987 28.6908 47.0452 27.6816 44.6427C26.6724 42.2402 26.4084 39.5965 26.9229 37.046C27.4373 34.4955 28.7072 32.1528 30.5719 30.314C32.4366 28.4752 34.8124 27.2229 37.3988 26.7156C39.9852 26.2083 42.6661 26.4687 45.1024 27.4638C47.5388 28.459 49.6212 30.1442 51.0863 32.3064C52.5513 34.4686 53.3333 37.0107 53.3333 39.6111C53.3333 43.0982 51.9286 46.4425 49.4281 48.9083C46.9276 51.374 43.5362 52.7593 40 52.7593Z" fill="white"/>
</g>
<path d="M63 40C63 52.7027 52.7027 63 40 63C27.2973 63 17 52.7027 17 40C17 27.2973 27.2973 17 40 17C52.7027 17 63 27.2973 63 40Z" fill="url(#paint0_linear)"/>
<mask id="mask0" mask-type="alpha" maskUnits="userSpaceOnUse" x="17" y="17" width="46" height="46">
<path d="M63 40C63 52.7027 52.7027 63 40 63C27.2973 63 17 52.7027 17 40C17 27.2973 27.2973 17 40 17C52.7027 17 63 27.2973 63 40Z" fill="url(#paint1_linear)"/>
</mask>
<g mask="url(#mask0)">
<path d="M51.3464 42.0466C48.0679 42.0466 44.2859 38.8792 44.2859 34.9861V28.0108H40.4478C40.2538 28.0799 40.0619 28.1549 39.873 28.2372L34.5776 51.2147L71.6875 50.5625V28.0108C71.6875 28.0108 60.5625 42.0466 51.3464 42.0466Z" fill="#26CBFF"/>
<path d="M37.7653 29.535L27.8144 37.8043C27.2939 38.2366 26.4612 38.5163 25.6929 38.5163H13.9375V47.6844L39.8728 51.2147V28.2372C39.1169 28.5668 38.4061 29.0025 37.7653 29.535Z" fill="#30F3FF"/>
<path d="M50.8169 27.5H46.6982L50.8169 34.7017C50.8169 35.8388 51.7387 36.761 52.8762 36.761C54.0133 36.761 54.9355 35.8388 54.9355 34.7017V31.6187C54.9355 29.344 53.0915 27.5 50.8169 27.5Z" fill="#03B2E9"/>
<path d="M46.6981 27.5L42.9099 27.5145L46.6981 34.7017C46.6981 35.8388 47.6199 36.761 48.7575 36.761C49.8946 36.761 50.8168 35.8388 50.8168 34.7017V31.6187C50.8168 29.344 48.9728 27.5 46.6981 27.5Z" fill="#26CBFF"/>
<path d="M42.9097 27.5145C42.066 27.5619 41.2367 27.7303 40.4475 28.0108C41.7181 28.7122 42.5793 30.0646 42.5793 31.6187V34.7017C42.5793 35.8388 43.5011 36.761 44.6386 36.761C45.7758 36.761 46.698 35.8388 46.698 34.7017V31.6187C46.698 29.4553 45.0296 27.6829 42.9097 27.5145Z" fill="#30F3FF"/>
<path fill-rule="evenodd" clip-rule="evenodd" d="M39.865 46.6747L36.3347 55.6804L48.9752 53.9667L48.3035 55.6804L66.8962 53.1597V47.6844C65.7647 47.6844 64.7214 47.3083 63.8836 46.6747C63.0458 47.3083 62.0025 47.6844 60.8709 47.6844C59.7398 47.6844 58.6965 47.3083 57.8587 46.6747C57.0309 47.3007 56.0026 47.6753 54.8867 47.6842C53.7709 47.6753 52.7426 47.3007 51.9148 46.6747C51.9014 46.6849 51.8878 46.695 51.8743 46.7051C51.8607 46.695 51.8472 46.6849 51.8337 46.6747L51.801 46.7584C50.9833 47.3413 49.983 47.6844 48.9021 47.6844C47.771 47.6844 46.7277 47.3083 45.8899 46.6747C45.0521 47.3083 44.0088 47.6844 42.8772 47.6844C41.7461 47.6844 40.7028 47.3083 39.865 46.6747Z" fill="#1DADFB"/>
<path fill-rule="evenodd" clip-rule="evenodd" d="M27.8645 53.6722V55.6804L12.802 53.1597V47.6844C13.9336 47.6844 14.9769 47.3083 15.8147 46.6747C16.6525 47.3083 17.6958 47.6844 18.8273 47.6844C19.9585 47.6844 21.0018 47.3083 21.8396 46.6747C22.6712 47.3036 23.7053 47.6788 24.8271 47.6843C25.949 47.6788 26.9831 47.3036 27.8147 46.6747C27.823 46.681 27.8313 46.6872 27.8396 46.6935C27.8479 46.6872 27.8562 46.681 27.8645 46.6747V46.7119C28.6937 47.323 29.7181 47.6844 30.8273 47.6844C31.9585 47.6844 33.0018 47.3083 33.8396 46.6747C34.6774 47.3083 35.7207 47.6844 36.8523 47.6844C37.9834 47.6844 39.0267 47.3083 39.8645 46.6747V55.6804L27.8645 53.6722Z" fill="#30CDFF"/>
<path d="M63.8835 52.1501C64.7213 52.7832 65.7646 53.1597 66.8958 53.1597V67.0625H37.511L39.7222 57.4595L37.511 54.8873L39.8645 52.1501C40.7023 52.7832 41.7456 53.1597 42.8772 53.1597C44.0087 53.1597 45.0516 52.7832 45.8898 52.1501C46.7276 52.7832 47.7705 53.1597 48.9021 53.1597C49.9401 53.1597 50.9038 52.8429 51.7028 52.3018L51.8333 52.1501L51.874 52.1806L51.9148 52.1501C52.7425 52.7757 53.7709 53.1507 54.8865 53.1595C56.0024 53.1507 57.0304 52.7757 57.8586 52.1501C58.6964 52.7832 59.7393 53.1597 60.8708 53.1597C62.0024 53.1597 63.0457 52.7832 63.8835 52.1501Z" fill="#093F61"/>
<path d="M15.8147 52.1501C14.9769 52.7832 13.9336 53.1597 12.802 53.1597V70.0448L39.8645 73V52.1501C39.0267 52.7832 37.9834 53.1597 36.8523 53.1597C35.7207 53.1597 34.6774 52.7832 33.8396 52.1501C33.0018 52.7832 31.9585 53.1597 30.8273 53.1597C29.7181 53.1597 28.6937 52.7979 27.8645 52.1873V52.1501L27.8396 52.1688L27.8147 52.1501C26.9831 52.7785 25.949 53.1541 24.8271 53.1596C23.7053 53.1541 22.6712 52.7785 21.8396 52.1501C21.0018 52.7832 19.9585 53.1597 18.8273 53.1597C17.6958 53.1597 16.6525 52.7832 15.8147 52.1501Z" fill="#0A9EDE"/>
</g>
<defs>
<filter id="filter0_dd" x="0" y="12" width="80" height="95" filterUnits="userSpaceOnUse" color-interpolation-filters="sRGB">
<feFlood flood-opacity="0" result="BackgroundImageFix"/>
<feColorMatrix in="SourceAlpha" type="matrix" values="0 0 0 0 0 0 0 0 0 0 0 0 0 0 0 0 0 0 127 0"/>
<feOffset dy="12"/>
<feGaussianBlur stdDeviation="6"/>
<feColorMatrix type="matrix" values="0 0 0 0 0 0 0 0 0 0 0 0 0 0 0 0 0 0 0.11 0"/>
<feBlend mode="normal" in2="BackgroundImageFix" result="effect1_dropShadow"/>
<feColorMatrix in="SourceAlpha" type="matrix" values="0 0 0 0 0 0 0 0 0 0 0 0 0 0 0 0 0 0 127 0"/>
<feOffset dy="4"/>
<feGaussianBlur stdDeviation="2"/>
<feColorMatrix type="matrix" values="0 0 0 0 0 0 0 0 0 0 0 0 0 0 0 0 0 0 0.09 0"/>
<feBlend mode="normal" in2="effect1_dropShadow" result="effect2_dropShadow"/>
<feBlend mode="normal" in="SourceGraphic" in2="effect2_dropShadow" result="shape"/>
</filter>
<linearGradient id="paint0_linear" x1="23.5" y1="21.5" x2="56.5" y2="63" gradientUnits="userSpaceOnUse">
<stop stop-color="#F5F9FF"/>
<stop offset="1" stop-color="#58FFF5"/>
</linearGradient>
<linearGradient id="paint1_linear" x1="23.5" y1="21.5" x2="56.5" y2="63" gradientUnits="userSpaceOnUse">
<stop stop-color="white"/>
<stop offset="1"/>
</linearGradient>
</defs>
</svg>
