<svg width="80" height="107" viewBox="0 0 80 107" fill="none" xmlns="http://www.w3.org/2000/svg">
<g filter="url(#filter0_dd)">
<path d="M40 12C32.5739 12 25.452 14.909 20.201 20.0871C14.95 25.2652 12 32.2882 12 39.6111C12 61.963 40 83 40 83C40 83 68 61.963 68 39.6111C68 32.2882 65.05 25.2652 59.799 20.0871C54.548 14.909 47.4261 12 40 12ZM40 52.7593C37.3629 52.7593 34.7851 51.9881 32.5924 50.5434C30.3997 49.0987 28.6908 47.0452 27.6816 44.6427C26.6724 42.2402 26.4084 39.5965 26.9229 37.046C27.4373 34.4955 28.7072 32.1528 30.5719 30.314C32.4366 28.4752 34.8124 27.2229 37.3988 26.7156C39.9852 26.2083 42.6661 26.4687 45.1024 27.4638C47.5388 28.459 49.6212 30.1442 51.0863 32.3064C52.5513 34.4686 53.3333 37.0107 53.3333 39.6111C53.3333 43.0982 51.9286 46.4425 49.4281 48.9083C46.9276 51.374 43.5362 52.7593 40 52.7593Z" fill="white"/>
</g>
<path d="M63 40C63 52.7027 52.7027 63 40 63C27.2973 63 17 52.7027 17 40C17 27.2973 27.2973 17 40 17C52.7027 17 63 27.2973 63 40Z" fill="url(#paint0_linear)"/>
<mask id="mask0" mask-type="alpha" maskUnits="userSpaceOnUse" x="17" y="17" width="46" height="46">
<path d="M63 40C63 52.7027 52.7027 63 40 63C27.2973 63 17 52.7027 17 40C17 27.2973 27.2973 17 40 17C52.7027 17 63 27.2973 63 40Z" fill="url(#paint1_linear)"/>
</mask>
<g mask="url(#mask0)">
<path d="M32.0193 26.8734C32.0193 26.8734 36.5786 28.3336 36.5786 46.3482H43.9431C43.9431 28.3336 48.5024 26.8734 48.5024 26.8734H32.0193Z" fill="white"/>
<path d="M36.6173 32.2853C39.2281 32.2853 41.3446 30.1688 41.3446 27.5579C41.3446 24.9471 39.2281 22.8306 36.6173 22.8306C34.0064 22.8306 31.8899 24.9471 31.8899 27.5579C31.8899 30.1688 34.0064 32.2853 36.6173 32.2853Z" fill="white"/>
<path d="M45.9896 32.6533C48.6004 32.6533 50.7169 30.5368 50.7169 27.9259C50.7169 25.3151 48.6004 23.1985 45.9896 23.1985C43.3787 23.1985 41.2622 25.3151 41.2622 27.9259C41.2622 30.5368 43.3787 32.6533 45.9896 32.6533Z" fill="white"/>
<path opacity="0.7" d="M50.7171 27.9259C54.8388 27.9259 58.1801 24.5846 58.1801 20.463C58.1801 16.3413 54.8388 13 50.7171 13C46.5954 13 43.2542 16.3413 43.2542 20.463C43.2542 24.5846 46.5954 27.9259 50.7171 27.9259Z" fill="white"/>
<path d="M40.2608 27.9259C44.3825 27.9259 47.7238 24.5846 47.7238 20.463C47.7238 16.3413 44.3825 13 40.2608 13C36.1391 13 32.7979 16.3413 32.7979 20.463C32.7979 24.5846 36.1391 27.9259 40.2608 27.9259Z" fill="white"/>
<path d="M60.9658 60.0424C59.6384 66.2053 56.71 71.6191 52.4946 76H28.4644H7.88232L28.4644 47.9667L30.6294 44.9823L34.8969 39.1021C35.3698 38.4508 36.124 38.0665 36.9278 38.0665H43.6977C44.4949 38.0665 45.244 38.4455 45.7168 39.0878L49.7642 44.5824L60.9658 60.0424Z" fill="#384C81"/>
<path d="M35.6316 64.0585L28.4643 56.8899L24.7126 53.1382L28.4344 48.0084L28.4643 48.0748L35.6316 64.0585Z" fill="#224278"/>
<path d="M35.6318 64.0584L28.4646 56.8899V48.0748L35.6318 64.0584Z" fill="#1A3863"/>
<path d="M72.3641 75.5441L52.4946 76H52.0973L43.557 52.4153L50.0404 54.9229L43.1858 38.0665H43.6977C44.495 38.0665 45.2453 38.4455 45.7182 39.0878L72.3641 75.5441Z" fill="#1A3863"/>
<path d="M47.1876 44.5824C46.7251 44.5824 46.3083 44.3948 46.0061 44.0926C45.7039 43.7904 45.5163 43.3735 45.5163 42.9111V42.0422C45.5163 42.0044 45.515 41.9666 45.5124 41.9289C45.4407 40.8711 43.845 40.9532 43.845 42.0122V45.3874C43.845 46.0244 43.3291 46.5403 42.6921 46.5403C42.3743 46.5403 42.0851 46.4113 41.8766 46.2029C41.6682 45.9945 41.5392 45.7066 41.5392 43.6562V43.6549C41.5392 43.0192 41.0234 42.5033 40.3864 42.5033C40.0685 42.5033 39.7807 42.6323 39.5722 42.8407C39.3638 43.0491 39.2348 43.337 39.2348 43.6549V55.6003C39.2348 56.4431 38.5509 57.127 37.7068 57.127C37.2861 57.127 36.9031 56.9564 36.6269 56.6802C36.3507 56.4027 36.1801 56.0224 36.1801 55.6003V43.4491C36.1801 42.9267 35.7567 42.5033 35.2344 42.5033H35.1497C34.7211 42.5033 34.3577 42.7951 34.2352 43.2068C33.9317 44.2333 32.9821 44.9823 31.8579 44.9823C31.4879 44.9823 31.23 44.6788 31.23 44.3544C31.23 44.2307 31.2678 44.103 31.3511 43.9884L34.3472 39.8602L34.897 39.1021C35.3698 38.4508 36.1241 38.0665 36.9278 38.0665H43.6978C44.495 38.0665 45.244 38.4455 45.7169 39.0878L46.2861 39.8602L48.2362 42.5072C48.8693 43.3683 48.2558 44.5824 47.1876 44.5824Z" fill="#DE1263"/>
<path d="M46.2861 39.8602H34.3472L34.8969 39.1021C35.3698 38.4508 36.124 38.0665 36.9277 38.0665H43.6977C44.4949 38.0665 45.2439 38.4455 45.7168 39.0878L46.2861 39.8602Z" fill="#BC0E5C"/>
</g>
<defs>
<filter id="filter0_dd" x="0" y="12" width="80" height="95" filterUnits="userSpaceOnUse" color-interpolation-filters="sRGB">
<feFlood flood-opacity="0" result="BackgroundImageFix"/>
<feColorMatrix in="SourceAlpha" type="matrix" values="0 0 0 0 0 0 0 0 0 0 0 0 0 0 0 0 0 0 127 0"/>
<feOffset dy="12"/>
<feGaussianBlur stdDeviation="6"/>
<feColorMatrix type="matrix" values="0 0 0 0 0 0 0 0 0 0 0 0 0 0 0 0 0 0 0.11 0"/>
<feBlend mode="normal" in2="BackgroundImageFix" result="effect1_dropShadow"/>
<feColorMatrix in="SourceAlpha" type="matrix" values="0 0 0 0 0 0 0 0 0 0 0 0 0 0 0 0 0 0 127 0"/>
<feOffset dy="4"/>
<feGaussianBlur stdDeviation="2"/>
<feColorMatrix type="matrix" values="0 0 0 0 0 0 0 0 0 0 0 0 0 0 0 0 0 0 0.09 0"/>
<feBlend mode="normal" in2="effect1_dropShadow" result="effect2_dropShadow"/>
<feBlend mode="normal" in="SourceGraphic" in2="effect2_dropShadow" result="shape"/>
</filter>
<linearGradient id="paint0_linear" x1="23.5" y1="21.5" x2="56.5" y2="63" gradientUnits="userSpaceOnUse">
<stop stop-color="#FFF3F6"/>
<stop offset="1" stop-color="#CEBDFF"/>
</linearGradient>
<linearGradient id="paint1_linear" x1="23.5" y1="21.5" x2="56.5" y2="63" gradientUnits="userSpaceOnUse">
<stop stop-color="#26ABAB"/>
<stop offset="1" stop-color="#9DE2FF"/>
</linearGradient>
</defs>
</svg>
