<svg width="80" height="107" viewBox="0 0 80 107" fill="none" xmlns="http://www.w3.org/2000/svg">
<g filter="url(#filter0_dd)">
<path d="M40 12C32.5739 12 25.452 14.909 20.201 20.0871C14.95 25.2652 12 32.2882 12 39.6111C12 61.963 40 83 40 83C40 83 68 61.963 68 39.6111C68 32.2882 65.05 25.2652 59.799 20.0871C54.548 14.909 47.4261 12 40 12ZM40 52.7593C37.3629 52.7593 34.7851 51.9881 32.5924 50.5434C30.3997 49.0987 28.6908 47.0452 27.6816 44.6427C26.6724 42.2402 26.4084 39.5965 26.9229 37.046C27.4373 34.4955 28.7072 32.1528 30.5719 30.314C32.4366 28.4752 34.8124 27.2229 37.3988 26.7156C39.9852 26.2083 42.6661 26.4687 45.1024 27.4638C47.5388 28.459 49.6212 30.1442 51.0863 32.3064C52.5513 34.4686 53.3333 37.0107 53.3333 39.6111C53.3333 43.0982 51.9286 46.4425 49.4281 48.9083C46.9276 51.374 43.5362 52.7593 40 52.7593Z" fill="white"/>
</g>
<path d="M63 40C63 52.7027 52.7027 63 40 63C27.2973 63 17 52.7027 17 40C17 27.2973 27.2973 17 40 17C52.7027 17 63 27.2973 63 40Z" fill="url(#paint0_linear)"/>
<path d="M48.8988 32.4195L47.8637 30.7216L47.1108 32.5621C46.4351 34.2139 45.4671 35.1612 44.4551 35.1613C42.5271 35.1614 41.6336 32.7115 41.4044 31.145C41.0744 28.8895 41.6661 26.5776 42.649 24.5539C42.6491 24.5537 43.7146 22.36 43.7146 22.36L41.4129 23.1666C37.3019 24.6072 33.8565 27.42 31.4493 31.3008C29.1014 35.086 27.8656 39.6771 27.8753 44.5758C27.8753 48.2979 29.1939 51.4344 31.6885 53.646C33.8893 55.5972 36.8411 56.6718 40.0002 56.6718C43.1592 56.6718 46.111 55.5972 48.3118 53.646C50.8064 51.4343 52.125 48.2979 52.125 44.5758C52.125 39.7005 51.1903 36.1787 48.8988 32.4195Z" fill="#FF4F19"/>
<path d="M31.4493 31.3009C29.1014 35.086 27.8656 39.6771 27.8753 44.5758C27.8753 48.2979 29.1939 51.4344 31.6885 53.6461C33.8893 55.5973 36.8411 56.6719 40.0002 56.6719V23.728C36.5113 25.2799 33.5752 27.8735 31.4493 31.3009Z" fill="#FF7800"/>
<path d="M40.7092 37.7945L40.036 37.3328L39.3628 37.7945C39.1378 37.9487 33.8533 41.628 33.8533 46.4232C33.8533 51.2185 39.1378 54.8977 39.3628 55.0519L40.036 55.5136L40.7092 55.0519C40.9341 54.8977 46.2187 51.2184 46.2187 46.4232C46.2187 41.628 40.9341 37.9487 40.7092 37.7945Z" fill="#00CA3F"/>
<path d="M40.036 37.3328L39.3628 37.7945C39.1378 37.9487 33.8533 41.628 33.8533 46.4232C33.8533 51.2185 39.1378 54.8977 39.3628 55.0519L40.036 55.5136V37.3328Z" fill="#6CEA66"/>
<path d="M41.2267 46.6312H38.8459V62.961L40.0363 62.9961L41.2267 62.961V46.6312Z" fill="#007842"/>
<path d="M40.0361 46.6312H38.8457V62.9688L40.0361 62.9961V46.6312Z" fill="#009A2D"/>
<defs>
<filter id="filter0_dd" x="0" y="12" width="80" height="95" filterUnits="userSpaceOnUse" color-interpolation-filters="sRGB">
<feFlood flood-opacity="0" result="BackgroundImageFix"/>
<feColorMatrix in="SourceAlpha" type="matrix" values="0 0 0 0 0 0 0 0 0 0 0 0 0 0 0 0 0 0 127 0"/>
<feOffset dy="12"/>
<feGaussianBlur stdDeviation="6"/>
<feColorMatrix type="matrix" values="0 0 0 0 0 0 0 0 0 0 0 0 0 0 0 0 0 0 0.11 0"/>
<feBlend mode="normal" in2="BackgroundImageFix" result="effect1_dropShadow"/>
<feColorMatrix in="SourceAlpha" type="matrix" values="0 0 0 0 0 0 0 0 0 0 0 0 0 0 0 0 0 0 127 0"/>
<feOffset dy="4"/>
<feGaussianBlur stdDeviation="2"/>
<feColorMatrix type="matrix" values="0 0 0 0 0 0 0 0 0 0 0 0 0 0 0 0 0 0 0.09 0"/>
<feBlend mode="normal" in2="effect1_dropShadow" result="effect2_dropShadow"/>
<feBlend mode="normal" in="SourceGraphic" in2="effect2_dropShadow" result="shape"/>
</filter>
<linearGradient id="paint0_linear" x1="22" y1="17" x2="56.5" y2="65.5" gradientUnits="userSpaceOnUse">
<stop stop-color="white"/>
<stop offset="1" stop-color="#FFBBBB"/>
</linearGradient>
</defs>
</svg>
